<?xml version="1.0" encoding="utf-8"?>
<!-- Generator: Adobe Illustrator 23.0.3, SVG Export Plug-In . SVG Version: 6.00 Build 0)  -->
<svg version="1.1" id="Layer_1" xmlns="http://www.w3.org/2000/svg" xmlns:xlink="http://www.w3.org/1999/xlink" x="0px" y="0px"
	 viewBox="0 0 220 390" style="enable-background:new 0 0 220 390;" xml:space="preserve">
<style type="text/css">
	.st0{opacity:0.7;}
	.st1{fill:#6ABD45;}
	.st2{opacity:0.6;}
	.st3{fill:#28441E;}
	.st4{opacity:0.9;}
	.st5{fill:#48C2C5;}
</style>
<path class="st0" d="M5.6-0.2c-2,0-4-0.2-5.8-0.6v390.6H220v-390H5.6z"/>
<g class="st0">
	<g>
		<path class="st1" d="M220.2,120.4c0,0.1-0.1,0.2-0.1,0.4c-1.1,3-2.2,15.6,0.1,21.7V120.4z"/>
	</g>
	<g>
		<path class="st1" d="M220.2,0.6c0-0.2,0-0.5,0-0.7h-13.7c-2.2,11.4,3.9,22.6,5.4,34.1c1.2,9.2-0.5,18.8-4.9,27
			c-2,3.7-4.5,7.1-5.9,11c-1.5,4.1-3.1,26,4.3,24.9c9.6-1.5,7.8-19,7.9-25.7c0.2-9.9,1.7-19.8,3.1-29.6c0.7-5,1.5-10.1,3.3-14.9
			c0.1-0.4,0.3-0.7,0.4-1.1V0.6z"/>
	</g>
	<g>
		<path class="st1" d="M199.5,0c0-0.1,0-0.1,0-0.2h-4.2c-0.2,6.9-2,13.7-5.3,19.7c-2,3.7-4.5,7.1-5.9,11c-1.5,4.1-3.1,26,4.3,24.9
			c9.6-1.5,7.8-19,7.9-25.7C196.5,19.7,198,9.8,199.5,0z"/>
	</g>
	<g class="st2">
		<path class="st3" d="M220.2,47.4c-0.5,0.1-1,0.3-1.4,0.5c-1.6,0.9-2.3,2.9-2.6,4.7c-1.8,9.2,1.8,18.3,4.1,27.5V47.4z"/>
	</g>
	<g class="st2">
		<path class="st3" d="M220.2,105c-0.9,3.1-2.1,6-3.6,8.9c-2,3.7-4.5,7.1-5.9,11c-1.5,4.1-3.1,26,4.3,24.9c2.3-0.4,4-1.7,5.2-3.5
			V105z"/>
	</g>
	<g class="st2">
		<path class="st3" d="M214,0.8c-0.7-0.4-1.4-0.7-2.2-0.9h-13c-0.9,1-1.4,2.5-1.7,3.9c-2.2,11.4,3.9,22.7,5.4,34.3
			c1.2,9.2-0.5,18.8-4.9,27c-2,3.7-4.5,7.1-5.9,11c-1.5,4.1-3.1,26,4.3,24.9c9.6-1.5,7.8-19,7.9-25.7c0.2-9.9,1.7-19.8,3.1-29.6
			c0.7-5,1.5-10.1,3.3-14.9c1.4-3.7,3.4-7.3,4.7-11c0.2-0.6,0.4-1.3,0.6-1.9c1.1-3.7,1.7-7.5,1.6-11.3c0-1.2-0.1-2.4-0.7-3.4
			C216.1,1.9,215.1,1.3,214,0.8z"/>
	</g>
	<g class="st2">
		<path class="st3" d="M190.2,4c0.2-1.4,0.4-2.8,0.7-4.2h-4.9c0.5,8.2-1.3,16.5-5.2,23.7c-2,3.7-4.5,7.1-5.9,11
			c-1.5,4.1-3.1,26,4.3,24.9c9.6-1.5,7.8-19,7.9-25.7C187.2,23.7,188.7,13.9,190.2,4z"/>
	</g>
	<g class="st4">
		<path class="st5" d="M220.2,67.5c-0.5,0.1-1,0.3-1.4,0.5c-1.6,0.9-2.3,2.9-2.6,4.7c-1.8,9.2,1.8,18.3,4.1,27.5V67.5z"/>
	</g>
	<g class="st4">
		<path class="st5" d="M220.2,125.1c-0.9,3.1-2.1,6.1-3.6,8.9c-2,3.7-4.5,7.1-5.9,11c-1.5,4.1-3.1,26,4.3,24.9
			c2.3-0.4,4-1.7,5.2-3.5V125.1z"/>
	</g>
	<g class="st4">
		<path class="st5" d="M215.8,37.7c1.1-3.7,1.7-7.5,1.6-11.3c0-1.2-0.1-2.4-0.7-3.4c-0.6-1-1.6-1.6-2.7-2.1
			c-3.4-1.7-7.3-2.6-11.1-2.4c-1.1,0-2.2,0.2-3.1,0.7c-1.6,0.9-2.3,2.9-2.6,4.7c-2.2,11.4,3.9,22.7,5.4,34.3
			c1.2,9.2-0.5,18.8-4.9,27c-2,3.7-4.5,7.1-5.9,11c-1.5,4.1-3.1,26,4.3,24.9c9.6-1.5,7.8-19,7.9-25.7c0.2-9.9,1.7-19.8,3.1-29.6
			c0.7-5,1.5-10.1,3.3-14.9c1.4-3.7,3.4-7.3,4.7-11C215.4,39,215.6,38.4,215.8,37.7z"/>
	</g>
	<g class="st4">
		<path class="st5" d="M181.5-0.2c1.4,5.6,3.3,11.2,4,16.9c1.2,9.2-0.5,18.8-4.9,27c-2,3.7-4.5,7.1-5.9,11c-1.5,4.1-3.1,26,4.3,24.9
			c9.6-1.5,7.8-19,7.9-25.7c0.2-9.9,1.7-19.8,3.1-29.6c0.7-5,1.5-10.1,3.3-14.9c1.2-3.2,2.8-6.3,4.1-9.4H181.5z"/>
	</g>
</g>
<g class="st0">
	<g>
		<path class="st1" d="M205.1,179.2c1.1-3.7,1.7-7.5,1.6-11.3c0-1.2-0.1-2.4-0.7-3.4c-0.6-1-1.6-1.6-2.7-2.1
			c-3.4-1.7-7.3-2.6-11.1-2.4c-1.1,0-2.2,0.2-3.1,0.7c-1.6,0.9-2.3,2.9-2.6,4.7c-2.2,11.4,3.9,22.7,5.4,34.3
			c1.2,9.2-0.5,18.8-4.9,27c-2,3.7-4.5,7.1-5.9,11c-1.5,4.1-3.1,26,4.3,24.9c9.6-1.5,7.8-19,7.9-25.7c0.2-9.9,1.7-19.8,3.1-29.6
			c0.7-5,1.5-10.1,3.3-14.9c1.4-3.7,3.4-7.3,4.7-11C204.7,180.5,204.9,179.9,205.1,179.2z"/>
	</g>
	<g>
		<path class="st1" d="M186.2,130.4c1.1-3.7,1.7-7.5,1.6-11.3c0-1.2-0.1-2.4-0.7-3.4c-0.6-1-1.6-1.6-2.7-2.1
			c-3.4-1.7-7.3-2.6-11.1-2.4c-1.1,0-2.2,0.2-3.1,0.7c-1.6,0.9-2.3,2.9-2.6,4.7c-2.2,11.4,3.9,22.7,5.4,34.3
			c1.2,9.2-0.5,18.8-4.9,27c-2,3.7-4.5,7.1-5.9,11c-1.5,4.1-3.1,26,4.3,24.9c9.6-1.5,7.8-19,7.9-25.7c0.2-9.9,1.7-19.8,3.1-29.6
			c0.7-5,1.5-10.1,3.3-14.9c1.4-3.7,3.4-7.3,4.7-11C185.8,131.7,186,131.1,186.2,130.4z"/>
	</g>
	<g>
		<path class="st1" d="M169.2,89c1.1-3.7,1.7-7.5,1.6-11.3c0-1.2-0.1-2.4-0.7-3.4c-0.6-1-1.6-1.6-2.7-2.1c-3.4-1.7-7.3-2.6-11.1-2.4
			c-1.1,0-2.2,0.2-3.1,0.7c-1.6,0.9-2.3,2.9-2.6,4.7c-2.2,11.4,3.9,22.7,5.4,34.3c1.2,9.2-0.5,18.8-4.9,27c-2,3.7-4.5,7.1-5.9,11
			c-1.5,4.1-3.1,26,4.3,24.9c9.6-1.5,7.8-19,7.9-25.7c0.2-9.9,1.7-19.8,3.1-29.6c0.7-5,1.5-10.1,3.3-14.9c1.4-3.7,3.4-7.3,4.7-11
			C168.8,90.3,169,89.7,169.2,89z"/>
	</g>
	<g class="st2">
		<path class="st3" d="M195.8,183.3c1.1-3.7,1.7-7.5,1.6-11.3c0-1.2-0.1-2.4-0.7-3.4c-0.6-1-1.6-1.6-2.7-2.1
			c-3.4-1.7-7.3-2.6-11.1-2.4c-1.1,0-2.2,0.2-3.1,0.7c-1.6,0.9-2.3,2.9-2.6,4.7c-2.2,11.4,3.9,22.7,5.4,34.3
			c1.2,9.2-0.5,18.8-4.9,27c-2,3.7-4.5,7.1-5.9,11c-1.5,4.1-3.1,26,4.3,24.9c9.6-1.5,7.8-19,7.9-25.7c0.2-9.9,1.7-19.8,3.1-29.6
			c0.7-5,1.5-10.1,3.3-14.9c1.4-3.7,3.4-7.3,4.7-11C195.4,184.6,195.6,183.9,195.8,183.3z"/>
	</g>
	<g class="st2">
		<path class="st3" d="M176.9,134.5c1.1-3.7,1.7-7.5,1.6-11.3c0-1.2-0.1-2.4-0.7-3.4c-0.6-1-1.6-1.6-2.7-2.1
			c-3.4-1.7-7.3-2.6-11.1-2.4c-1.1,0-2.2,0.2-3.1,0.7c-1.6,0.9-2.3,2.9-2.6,4.7c-2.2,11.4,3.9,22.7,5.4,34.3
			c1.2,9.2-0.5,18.8-4.9,27c-2,3.7-4.5,7.1-5.9,11c-1.5,4.1-3.1,26,4.3,24.9c9.6-1.5,7.8-19,7.9-25.7c0.2-9.9,1.7-19.8,3.1-29.6
			c0.7-5,1.5-10.1,3.3-14.9c1.4-3.7,3.4-7.3,4.7-11C176.5,135.8,176.7,135.1,176.9,134.5z"/>
	</g>
	<g class="st2">
		<path class="st3" d="M159.9,93.1c1.1-3.7,1.7-7.5,1.6-11.3c0-1.2-0.1-2.4-0.7-3.4c-0.6-1-1.6-1.6-2.7-2.1
			c-3.4-1.7-7.3-2.6-11.1-2.4c-1.1,0-2.2,0.2-3.1,0.7c-1.6,0.9-2.3,2.9-2.6,4.7c-2.2,11.4,3.9,22.7,5.4,34.3
			c1.2,9.2-0.5,18.8-4.9,27c-2,3.7-4.5,7.1-5.9,11c-1.5,4.1-3.1,26,4.3,24.9c9.6-1.5,7.8-19,7.9-25.7c0.2-9.9,1.7-19.8,3.1-29.6
			c0.7-5,1.5-10.1,3.3-14.9c1.4-3.7,3.4-7.3,4.7-11C159.5,94.4,159.7,93.7,159.9,93.1z"/>
	</g>
	<g class="st4">
		<path class="st5" d="M195.8,203.4c1.1-3.7,1.7-7.5,1.6-11.3c0-1.2-0.1-2.4-0.7-3.4c-0.6-1-1.6-1.6-2.7-2.1
			c-3.4-1.7-7.3-2.6-11.1-2.4c-1.1,0-2.2,0.2-3.1,0.7c-1.6,0.9-2.3,2.9-2.6,4.7c-2.2,11.4,3.9,22.7,5.4,34.3
			c1.2,9.2-0.5,18.8-4.9,27c-2,3.7-4.5,7.1-5.9,11c-1.5,4.1-3.1,26,4.3,24.9c9.6-1.5,7.8-19,7.9-25.7c0.2-9.9,1.7-19.8,3.1-29.6
			c0.7-5,1.5-10.1,3.3-14.9c1.4-3.7,3.4-7.3,4.7-11C195.4,204.7,195.6,204.1,195.8,203.4z"/>
	</g>
	<g class="st4">
		<path class="st5" d="M176.9,154.6c1.1-3.7,1.7-7.5,1.6-11.3c0-1.2-0.1-2.4-0.7-3.4c-0.6-1-1.6-1.6-2.7-2.1
			c-3.4-1.7-7.3-2.6-11.1-2.4c-1.1,0-2.2,0.2-3.1,0.7c-1.6,0.9-2.3,2.9-2.6,4.7c-2.2,11.4,3.9,22.7,5.4,34.3
			c1.2,9.2-0.5,18.8-4.9,27c-2,3.7-4.5,7.1-5.9,11c-1.5,4.1-3.1,26,4.3,24.9c9.6-1.5,7.8-19,7.9-25.7c0.2-9.9,1.7-19.8,3.1-29.6
			c0.7-5,1.5-10.1,3.3-14.9c1.4-3.7,3.4-7.3,4.7-11C176.5,155.9,176.7,155.2,176.9,154.6z"/>
	</g>
	<g class="st4">
		<path class="st5" d="M159.9,113.2c1.1-3.7,1.7-7.5,1.6-11.3c0-1.2-0.1-2.4-0.7-3.4c-0.6-1-1.6-1.6-2.7-2.1
			c-3.4-1.7-7.3-2.6-11.1-2.4c-1.1,0-2.2,0.2-3.1,0.7c-1.6,0.9-2.3,2.9-2.6,4.7c-2.2,11.4,3.9,22.7,5.4,34.3
			c1.2,9.2-0.5,18.8-4.9,27c-2,3.7-4.5,7.1-5.9,11c-1.5,4.1-3.1,26,4.3,24.9c9.6-1.5,7.8-19,7.9-25.7c0.2-9.9,1.7-19.8,3.1-29.6
			c0.7-5,1.5-10.1,3.3-14.9c1.4-3.7,3.4-7.3,4.7-11C159.5,114.5,159.7,113.8,159.9,113.2z"/>
	</g>
</g>
<g class="st0">
	<g>
		<path class="st1" d="M169.1,306.6c1.1-3.7,1.7-7.5,1.6-11.3c0-1.2-0.1-2.4-0.7-3.4c-0.6-1-1.6-1.6-2.7-2.1
			c-3.4-1.7-7.3-2.6-11.1-2.4c-1.1,0-2.2,0.2-3.1,0.7c-1.6,0.9-2.3,2.9-2.6,4.7c-2.2,11.4,3.9,22.7,5.4,34.3
			c1.2,9.2-0.5,18.8-4.9,27c-2,3.7-4.5,7.1-5.9,11c-1.5,4.1-3.1,26,4.3,24.9c9.6-1.5,7.8-19,7.9-25.7c0.2-9.9,1.7-19.8,3.1-29.6
			c0.7-5,1.5-10.1,3.3-14.9c1.4-3.7,3.4-7.3,4.7-11C168.6,307.8,168.9,307.2,169.1,306.6z"/>
	</g>
	<g>
		<path class="st1" d="M150.1,257.7c1.1-3.7,1.7-7.5,1.6-11.3c0-1.2-0.1-2.4-0.7-3.4c-0.6-1-1.6-1.6-2.7-2.1
			c-3.4-1.7-7.3-2.6-11.1-2.4c-1.1,0-2.2,0.2-3.1,0.7c-1.6,0.9-2.3,2.9-2.6,4.7c-2.2,11.4,3.9,22.7,5.4,34.3
			c1.2,9.2-0.5,18.8-4.9,27c-2,3.7-4.5,7.1-5.9,11c-1.5,4.1-3.1,26,4.3,24.9c9.6-1.5,7.8-19,7.9-25.7c0.2-9.9,1.7-19.8,3.1-29.6
			c0.7-5,1.5-10.1,3.3-14.9c1.4-3.7,3.4-7.3,4.7-11C149.7,259,149.9,258.4,150.1,257.7z"/>
	</g>
	<g>
		<path class="st1" d="M133.1,216.3c1.1-3.7,1.7-7.5,1.6-11.3c0-1.2-0.1-2.4-0.7-3.4c-0.6-1-1.6-1.6-2.7-2.1
			c-3.4-1.7-7.3-2.6-11.1-2.4c-1.1,0-2.2,0.2-3.1,0.7c-1.6,0.9-2.3,2.9-2.6,4.7c-2.2,11.4,3.9,22.7,5.4,34.3
			c1.2,9.2-0.5,18.8-4.9,27c-2,3.7-4.5,7.1-5.9,11c-1.5,4.1-3.1,26,4.3,24.9c9.6-1.5,7.8-19,7.9-25.7c0.2-9.9,1.7-19.8,3.1-29.6
			c0.7-5,1.5-10.1,3.3-14.9c1.4-3.7,3.4-7.3,4.7-11C132.7,217.6,132.9,217,133.1,216.3z"/>
	</g>
	<g class="st2">
		<path class="st3" d="M144.5,391.2c4.5-5.5,3.4-17.8,3.5-23.2c0.2-9.9,1.7-19.8,3.1-29.6c0.7-5,1.5-10.1,3.3-14.9
			c1.4-3.7,3.4-7.3,4.7-11c0.2-0.6,0.4-1.3,0.6-1.9c1.1-3.7,1.7-7.5,1.6-11.3c0-1.2-0.1-2.4-0.7-3.4c-0.6-1-1.6-1.6-2.7-2.1
			c-3.4-1.7-7.3-2.6-11.1-2.4c-1.1,0-2.2,0.2-3.1,0.7c-1.6,0.9-2.3,2.9-2.6,4.7c-2.2,11.4,3.9,22.7,5.4,34.3
			c1.2,9.2-0.5,18.8-4.9,27c-2,3.7-4.5,7.1-5.9,11c-1.1,3.2-2.3,16.5,0.4,22.3H144.5z"/>
	</g>
	<g class="st2">
		<path class="st3" d="M140.8,261.8c1.1-3.7,1.7-7.5,1.6-11.3c0-1.2-0.1-2.4-0.7-3.4c-0.6-1-1.6-1.6-2.7-2.1
			c-3.4-1.7-7.3-2.6-11.1-2.4c-1.1,0-2.2,0.2-3.1,0.7c-1.6,0.9-2.3,2.9-2.6,4.7c-2.2,11.4,3.9,22.7,5.4,34.3
			c1.2,9.2-0.5,18.8-4.9,27c-2,3.7-4.5,7.1-5.9,11c-1.5,4.1-3.1,26,4.3,24.9c9.6-1.5,7.8-19,7.9-25.7c0.2-9.9,1.7-19.8,3.1-29.6
			c0.7-5,1.5-10.1,3.3-14.9c1.4-3.7,3.4-7.3,4.7-11C140.4,263.1,140.6,262.4,140.8,261.8z"/>
	</g>
	<g class="st2">
		<path class="st3" d="M123.8,220.4c1.1-3.7,1.7-7.5,1.6-11.3c0-1.2-0.1-2.4-0.7-3.4c-0.6-1-1.6-1.6-2.7-2.1
			c-3.4-1.7-7.3-2.6-11.1-2.4c-1.1,0-2.2,0.2-3.1,0.7c-1.6,0.9-2.3,2.9-2.6,4.7c-2.2,11.4,3.9,22.7,5.4,34.3
			c1.2,9.2-0.5,18.8-4.9,27c-2,3.7-4.5,7.1-5.9,11c-1.5,4.1-3.1,26,4.3,24.9c9.6-1.5,7.8-19,7.9-25.7c0.2-9.9,1.7-19.8,3.1-29.6
			c0.7-5,1.5-10.1,3.3-14.9c1.4-3.7,3.4-7.3,4.7-11C123.4,221.7,123.6,221,123.8,220.4z"/>
	</g>
	<g class="st4">
		<path class="st5" d="M135.7,389.1c-0.2,0.5-0.3,1.2-0.5,2.2H148c0-1.2,0-2.2,0-3c0.2-9.9,1.7-19.8,3.1-29.6
			c0.7-5,1.5-10.1,3.3-14.9c1.4-3.7,3.4-7.3,4.7-11c0.2-0.6,0.4-1.3,0.6-1.9c1.1-3.7,1.7-7.5,1.6-11.3c0-1.2-0.1-2.4-0.7-3.4
			c-0.6-1-1.6-1.6-2.7-2.1c-3.4-1.7-7.3-2.6-11.1-2.4c-1.1,0-2.2,0.2-3.1,0.7c-1.6,0.9-2.3,2.9-2.6,4.7c-2.2,11.4,3.9,22.7,5.4,34.3
			c1.2,9.2-0.5,18.8-4.9,27C139.6,381.7,137.1,385.1,135.7,389.1z"/>
	</g>
	<g class="st4">
		<path class="st5" d="M140.8,281.9c1.1-3.7,1.7-7.5,1.6-11.3c0-1.2-0.1-2.4-0.7-3.4c-0.6-1-1.6-1.6-2.7-2.1
			c-3.4-1.7-7.3-2.6-11.1-2.4c-1.1,0-2.2,0.2-3.1,0.7c-1.6,0.9-2.3,2.9-2.6,4.7c-2.2,11.4,3.9,22.7,5.4,34.3
			c1.2,9.2-0.5,18.8-4.9,27c-2,3.7-4.5,7.1-5.9,11c-1.5,4.1-3.1,26,4.3,24.9c9.6-1.5,7.8-19,7.9-25.7c0.2-9.9,1.7-19.8,3.1-29.6
			c0.7-5,1.5-10.1,3.3-14.9c1.4-3.7,3.4-7.3,4.7-11C140.4,283.2,140.6,282.5,140.8,281.9z"/>
	</g>
	<g class="st4">
		<path class="st5" d="M123.8,240.5c1.1-3.7,1.7-7.5,1.6-11.3c0-1.2-0.1-2.4-0.7-3.4c-0.6-1-1.6-1.6-2.7-2.1
			c-3.4-1.7-7.3-2.6-11.1-2.4c-1.1,0-2.2,0.2-3.1,0.7c-1.6,0.9-2.3,2.9-2.6,4.7c-2.2,11.4,3.9,22.7,5.4,34.3
			c1.2,9.2-0.5,18.8-4.9,27c-2,3.7-4.5,7.1-5.9,11c-1.5,4.1-3.1,26,4.3,24.9c9.6-1.5,7.8-19,7.9-25.7c0.2-9.9,1.7-19.8,3.1-29.6
			c0.7-5,1.5-10.1,3.3-14.9c1.4-3.7,3.4-7.3,4.7-11C123.4,241.8,123.6,241.1,123.8,240.5z"/>
	</g>
</g>
<g class="st0">
	<g>
		<path class="st1" d="M108.2,185.2c1.1-3.7,1.7-7.5,1.6-11.3c0-1.2-0.1-2.4-0.7-3.4c-0.6-1-1.6-1.6-2.7-2.1
			c-3.4-1.7-7.3-2.6-11.1-2.4c-1.1,0-2.2,0.2-3.1,0.7c-1.6,0.9-2.3,2.9-2.6,4.7c-2.2,11.4,3.9,22.7,5.4,34.3
			c1.2,9.2-0.5,18.8-4.9,27c-2,3.7-4.5,7.1-5.9,11c-1.5,4.1-3.1,26,4.3,24.9c9.6-1.5,7.8-19,7.9-25.7c0.2-9.9,1.7-19.8,3.1-29.6
			c0.7-5,1.5-10.1,3.3-14.9c1.4-3.7,3.4-7.3,4.7-11C107.8,186.5,108,185.8,108.2,185.2z"/>
	</g>
	<g>
		<path class="st1" d="M89.2,136.3c1.1-3.7,1.7-7.5,1.6-11.3c0-1.2-0.1-2.4-0.7-3.4c-0.6-1-1.6-1.6-2.7-2.1
			c-3.4-1.7-7.3-2.6-11.1-2.4c-1.1,0-2.2,0.2-3.1,0.7c-1.6,0.9-2.3,2.9-2.6,4.7c-2.2,11.4,3.9,22.7,5.4,34.3
			c1.2,9.2-0.5,18.8-4.9,27c-2,3.7-4.5,7.1-5.9,11c-1.5,4.1-3.1,26,4.3,24.9c9.6-1.5,7.8-19,7.9-25.7c0.2-9.9,1.7-19.8,3.1-29.6
			c0.7-5,1.5-10.1,3.3-14.9c1.4-3.7,3.4-7.3,4.7-11C88.8,137.6,89,137,89.2,136.3z"/>
	</g>
	<g>
		<path class="st1" d="M72.2,94.9c1.1-3.7,1.7-7.5,1.6-11.3c0-1.2-0.1-2.4-0.7-3.4c-0.6-1-1.6-1.6-2.7-2.1
			c-3.4-1.7-7.3-2.6-11.1-2.4c-1.1,0-2.2,0.2-3.1,0.7c-1.6,0.9-2.3,2.9-2.6,4.7c-2.2,11.4,3.9,22.7,5.4,34.3
			c1.2,9.2-0.5,18.8-4.9,27c-2,3.7-4.5,7.1-5.9,11c-1.5,4.1-3.1,26,4.3,24.9c9.6-1.5,7.8-19,7.9-25.7c0.2-9.9,1.7-19.8,3.1-29.6
			c0.7-5,1.5-10.1,3.3-14.9c1.4-3.7,3.4-7.3,4.7-11C71.8,96.2,72,95.6,72.2,94.9z"/>
	</g>
	<g class="st2">
		<path class="st3" d="M98.9,189.2c1.1-3.7,1.7-7.5,1.6-11.3c0-1.2-0.1-2.4-0.7-3.4c-0.6-1-1.6-1.6-2.7-2.1
			c-3.4-1.7-7.3-2.6-11.1-2.4c-1.1,0-2.2,0.2-3.1,0.7c-1.6,0.9-2.3,2.9-2.6,4.7c-2.2,11.4,3.9,22.7,5.4,34.3
			c1.2,9.2-0.5,18.8-4.9,27c-2,3.7-4.5,7.1-5.9,11c-1.5,4.1-3.1,26,4.3,24.9c9.6-1.5,7.8-19,7.9-25.7c0.2-9.9,1.7-19.8,3.1-29.6
			c0.7-5,1.5-10.1,3.3-14.9c1.4-3.7,3.4-7.3,4.7-11C98.4,190.5,98.7,189.9,98.9,189.2z"/>
	</g>
	<g class="st2">
		<path class="st3" d="M79.9,140.4c1.1-3.7,1.7-7.5,1.6-11.3c0-1.2-0.1-2.4-0.7-3.4c-0.6-1-1.6-1.6-2.7-2.1
			c-3.4-1.7-7.3-2.6-11.1-2.4c-1.1,0-2.2,0.2-3.1,0.7c-1.6,0.9-2.3,2.9-2.6,4.7c-2.2,11.4,3.9,22.7,5.4,34.3
			c1.2,9.2-0.5,18.8-4.9,27c-2,3.7-4.5,7.1-5.9,11c-1.5,4.1-3.1,26,4.3,24.9c9.6-1.5,7.8-19,7.9-25.7c0.2-9.9,1.7-19.8,3.1-29.6
			c0.7-5,1.5-10.1,3.3-14.9c1.4-3.7,3.4-7.3,4.7-11C79.5,141.7,79.7,141,79.9,140.4z"/>
	</g>
	<g class="st2">
		<path class="st3" d="M62.9,99c1.1-3.7,1.7-7.5,1.6-11.3c0-1.2-0.1-2.4-0.7-3.4c-0.6-1-1.6-1.6-2.7-2.1c-3.4-1.7-7.3-2.6-11.1-2.4
			c-1.1,0-2.2,0.2-3.1,0.7c-1.6,0.9-2.3,2.9-2.6,4.7c-2.2,11.4,3.9,22.7,5.4,34.3c1.2,9.2-0.5,18.8-4.9,27c-2,3.7-4.5,7.1-5.9,11
			c-1.5,4.1-3.1,26,4.3,24.9c9.6-1.5,7.8-19,7.9-25.7c0.2-9.9,1.7-19.8,3.1-29.6c0.7-5,1.5-10.1,3.3-14.9c1.4-3.7,3.4-7.3,4.7-11
			C62.5,100.3,62.7,99.6,62.9,99z"/>
	</g>
	<g class="st4">
		<path class="st5" d="M98.9,209.3c1.1-3.7,1.7-7.5,1.6-11.3c0-1.2-0.1-2.4-0.7-3.4c-0.6-1-1.6-1.6-2.7-2.1
			c-3.4-1.7-7.3-2.6-11.1-2.4c-1.1,0-2.2,0.2-3.1,0.7c-1.6,0.9-2.3,2.9-2.6,4.7c-2.2,11.4,3.9,22.7,5.4,34.3
			c1.2,9.2-0.5,18.8-4.9,27c-2,3.7-4.5,7.1-5.9,11c-1.5,4.1-3.1,26,4.3,24.9c9.6-1.5,7.8-19,7.9-25.7c0.2-9.9,1.7-19.8,3.1-29.6
			c0.7-5,1.5-10.1,3.3-14.9c1.4-3.7,3.4-7.3,4.7-11C98.4,210.6,98.7,210,98.9,209.3z"/>
	</g>
	<g class="st4">
		<path class="st5" d="M79.9,160.5c1.1-3.7,1.7-7.5,1.6-11.3c0-1.2-0.1-2.4-0.7-3.4c-0.6-1-1.6-1.6-2.7-2.1
			c-3.4-1.7-7.3-2.6-11.1-2.4c-1.1,0-2.2,0.2-3.1,0.7c-1.6,0.9-2.3,2.9-2.6,4.7c-2.2,11.4,3.9,22.7,5.4,34.3
			c1.2,9.2-0.5,18.8-4.9,27c-2,3.7-4.5,7.1-5.9,11c-1.5,4.1-3.1,26,4.3,24.9c9.6-1.5,7.8-19,7.9-25.7c0.2-9.9,1.7-19.8,3.1-29.6
			c0.7-5,1.5-10.1,3.3-14.9c1.4-3.7,3.4-7.3,4.7-11C79.5,161.8,79.7,161.2,79.9,160.5z"/>
	</g>
	<g class="st4">
		<path class="st5" d="M62.9,119.1c1.1-3.7,1.7-7.5,1.6-11.3c0-1.2-0.1-2.4-0.7-3.4c-0.6-1-1.6-1.6-2.7-2.1
			c-3.4-1.7-7.3-2.6-11.1-2.4c-1.1,0-2.2,0.2-3.1,0.7c-1.6,0.9-2.3,2.9-2.6,4.7c-2.2,11.4,3.9,22.7,5.4,34.3
			c1.2,9.2-0.5,18.8-4.9,27c-2,3.7-4.5,7.1-5.9,11c-1.5,4.1-3.1,26,4.3,24.9c9.6-1.5,7.8-19,7.9-25.7c0.2-9.9,1.7-19.8,3.1-29.6
			c0.7-5,1.5-10.1,3.3-14.9c1.4-3.7,3.4-7.3,4.7-11C62.5,120.4,62.7,119.7,62.9,119.1z"/>
	</g>
</g>
<g class="st0">
	<g>
		<path class="st1" d="M142.3,60.5c1.1-3.7,1.7-7.5,1.6-11.3c0-1.2-0.1-2.4-0.7-3.4c-0.6-1-1.6-1.6-2.7-2.1
			c-3.4-1.7-7.3-2.6-11.1-2.4c-1.1,0-2.2,0.2-3.1,0.7c-1.6,0.9-2.3,2.9-2.6,4.7c-2.2,11.4,3.9,22.7,5.4,34.3
			c1.2,9.2-0.5,18.8-4.9,27c-2,3.7-4.5,7.1-5.9,11c-1.5,4.1-3.1,26,4.3,24.9c9.6-1.5,7.8-19,7.9-25.7c0.2-9.9,1.7-19.8,3.1-29.6
			c0.7-5,1.5-10.1,3.3-14.9c1.4-3.7,3.4-7.3,4.7-11C141.9,61.8,142.1,61.2,142.3,60.5z"/>
	</g>
	<g>
		<path class="st1" d="M104.4-0.2c-1.2,10.8,4.3,21.4,5.7,32.3c1.2,9.2-0.5,18.8-4.9,27c-2,3.7-4.5,7.1-5.9,11
			c-1.5,4.1-3.1,26,4.3,24.9c9.6-1.5,7.8-19,7.9-25.7c0.2-9.9,1.7-19.8,3.1-29.6c0.7-5,1.5-10.1,3.3-14.9c1.4-3.7,3.4-7.3,4.7-11
			c0.2-0.6,0.4-1.3,0.6-1.9C124.5,8,125,4.2,125,0.4c0-0.2,0-0.4,0-0.5H104.4z"/>
	</g>
	<g>
		<path class="st1" d="M94.6,27.8c0.2-9.4,1.5-18.7,2.9-27.9h-4.1c-0.5,6.2-2.2,12.3-5.2,17.8c-2,3.7-4.5,7.1-5.9,11
			c-1.5,4.1-3.1,26,4.3,24.9C96.2,52,94.4,34.5,94.6,27.8z"/>
	</g>
	<g class="st2">
		<path class="st3" d="M133,64.6c1.1-3.7,1.7-7.5,1.6-11.3c0-1.2-0.1-2.4-0.7-3.4c-0.6-1-1.6-1.6-2.7-2.1c-3.4-1.7-7.3-2.6-11.1-2.4
			c-1.1,0-2.2,0.2-3.1,0.7c-1.6,0.9-2.3,2.9-2.6,4.7c-2.2,11.4,3.9,22.7,5.4,34.3c1.2,9.2-0.5,18.8-4.9,27c-2,3.7-4.5,7.1-5.9,11
			c-1.5,4.1-3.1,26,4.3,24.9c9.6-1.5,7.8-19,7.9-25.7c0.2-9.9,1.7-19.8,3.1-29.6c0.7-5,1.5-10.1,3.3-14.9c1.4-3.7,3.4-7.3,4.7-11
			C132.6,65.9,132.8,65.2,133,64.6z"/>
	</g>
	<g class="st2">
		<path class="st3" d="M113.8-0.2H96c-0.3,0.7-0.4,1.3-0.6,2c-2.2,11.4,3.9,22.7,5.4,34.3c1.2,9.2-0.5,18.8-4.9,27
			c-2,3.7-4.5,7.1-5.9,11c-1.5,4.1-3.1,26,4.3,24.9c9.6-1.5,7.8-19,7.9-25.7c0.2-9.9,1.7-19.8,3.1-29.6c0.7-5,1.5-10.1,3.3-14.9
			c1.4-3.7,3.4-7.3,4.7-11c0.2-0.6,0.4-1.3,0.6-1.9c1.1-3.7,1.7-7.5,1.6-11.3c0-1.2-0.1-2.4-0.7-3.4C114.6,0.6,114.2,0.2,113.8-0.2z
			"/>
	</g>
	<g class="st2">
		<path class="st3" d="M88.4,2.2c0.1-0.8,0.2-1.6,0.4-2.3h-4.6c0.1,7.6-1.7,15.2-5.3,21.9c-2,3.7-4.5,7.1-5.9,11
			c-1.5,4.1-3.1,26,4.3,24.9c9.6-1.5,7.8-19,7.9-25.7C85.5,21.9,86.9,12,88.4,2.2z"/>
	</g>
	<g class="st4">
		<path class="st5" d="M133,84.7c1.1-3.7,1.7-7.5,1.6-11.3c0-1.2-0.1-2.4-0.7-3.4c-0.6-1-1.6-1.6-2.7-2.1c-3.4-1.7-7.3-2.6-11.1-2.4
			c-1.1,0-2.2,0.2-3.1,0.7c-1.6,0.9-2.3,2.9-2.6,4.7c-2.2,11.4,3.9,22.7,5.4,34.3c1.2,9.2-0.5,18.8-4.9,27c-2,3.7-4.5,7.1-5.9,11
			c-1.5,4.1-3.1,26,4.3,24.9c9.6-1.5,7.8-19,7.9-25.7c0.2-9.9,1.7-19.8,3.1-29.6c0.7-5,1.5-10.1,3.3-14.9c1.4-3.7,3.4-7.3,4.7-11
			C132.6,86,132.8,85.3,133,84.7z"/>
	</g>
	<g class="st4">
		<path class="st5" d="M114,35.9c1.1-3.7,1.7-7.5,1.6-11.3c0-1.2-0.1-2.4-0.7-3.4c-0.6-1-1.6-1.6-2.7-2.1c-3.4-1.7-7.3-2.6-11.1-2.4
			c-1.1,0-2.2,0.2-3.1,0.7c-1.6,0.9-2.3,2.9-2.6,4.7c-2.2,11.4,3.9,22.7,5.4,34.3c1.2,9.2-0.5,18.8-4.9,27c-2,3.7-4.5,7.1-5.9,11
			c-1.5,4.1-3.1,26,4.3,24.9c9.6-1.5,7.8-19,7.9-25.7c0.2-9.9,1.7-19.8,3.1-29.6c0.7-5,1.5-10.1,3.3-14.9c1.4-3.7,3.4-7.3,4.7-11
			C113.6,37.2,113.8,36.5,114,35.9z"/>
	</g>
	<g class="st4">
		<path class="st5" d="M80.3-0.2c1.3,5,2.9,10,3.6,15c1.2,9.2-0.5,18.8-4.9,27c-2,3.7-4.5,7.1-5.9,11c-1.5,4.1-3.1,26,4.3,24.9
			c9.6-1.5,7.8-19,7.9-25.7c0.2-9.9,1.7-19.8,3.1-29.6c0.7-5,1.5-10.1,3.3-14.9c0.9-2.6,2.2-5,3.3-7.6H80.3z"/>
	</g>
</g>
<g class="st0">
	<path class="st1" d="M170.7,7.7c0.1-2.6,0.2-5.2,0.4-7.8H163c-1.7,2.8-3.5,5.6-4.5,8.7c-1.5,4.1-3.1,26,4.3,24.9
		C172.4,31.9,170.6,14.4,170.7,7.7z"/>
</g>
<g class="st0">
	<path class="st3" d="M161.4,11.7c0.1-4,0.4-7.9,0.8-11.9h-6.3c-0.3,0.6-0.6,1.2-0.9,1.8c-2,3.7-4.5,7.1-5.9,11
		c-1.5,4.1-3.1,26,4.3,24.9C163.1,35.9,161.3,18.4,161.4,11.7z"/>
</g>
<g class="st0">
	<path class="st5" d="M164.5,2.2c0.1-0.8,0.2-1.6,0.4-2.3h-4.6c0.1,7.6-1.7,15.2-5.3,21.9c-2,3.7-4.5,7.1-5.9,11
		c-1.5,4.1-3.1,26,4.3,24.9c9.6-1.5,7.8-19,7.9-25.7C161.6,21.9,163.1,12,164.5,2.2z"/>
</g>
<g class="st0">
	<path class="st5" d="M129.2-0.2c0.5,5.2,2,9.4,5.3,8.9c4.2-0.7,6.2-4.4,7.2-8.9H129.2z"/>
</g>
<g class="st0">
	<path class="st1" d="M218.9,276.3c0.1-6.6,0.8-13.3,1.7-19.8v-4.3c-0.3-1.7-0.5-3.4-0.5-5.1v-47.4c-0.8-0.1-1.5-0.1-2.3-0.1
		c-1.1,0-2.2,0.2-3.1,0.7c-1.6,0.9-2.3,2.9-2.6,4.7c-2.2,11.4,3.9,22.7,5.4,34.3c1.2,9.2-0.5,18.8-4.9,27c-2,3.7-4.5,7.1-5.9,11
		c-1.5,4.1-3.1,26,4.3,24.9C220.6,300.6,218.8,283.1,218.9,276.3z"/>
</g>
<g class="st0">
	<path class="st3" d="M220.7,252.1c-0.2-1.1-0.4-2.2-0.4-3.3c-0.2,0.6-0.3,1.1-0.4,1.7c-1,5.2-0.3,10.3,0.9,15.5V252.1z"/>
</g>
<g class="st0">
	<path class="st3" d="M220.7,310.9c-0.1,0.3-0.3,0.6-0.4,0.8c-2,3.7-4.5,7.1-5.9,11c-1.5,4.1-3.1,26,4.3,24.9c0.7-0.1,1.4-0.3,2-0.6
		V310.9z"/>
</g>
<g class="st0">
	<path class="st3" d="M220.2,206.4c-0.2-0.1-0.3-0.2-0.5-0.3c-3.4-1.7-7.3-2.6-11.1-2.4c-1.1,0-2.2,0.2-3.1,0.7
		c-1.6,0.9-2.3,2.9-2.6,4.7c-2.2,11.4,3.9,22.7,5.4,34.3c1.2,9.2-0.5,18.8-4.9,27c-2,3.7-4.5,7.1-5.9,11c-1.5,4.1-3.1,26,4.3,24.9
		c9.6-1.5,7.8-19,7.9-25.7c0.2-9.9,1.7-19.8,3.1-29.6c0.7-5,1.5-10.1,3.3-14.9c1.2-3.2,2.8-6.3,4.1-9.5V206.4z"/>
</g>
<g class="st0">
	<path class="st5" d="M220.7,267.8c-0.4,0.8-0.7,1.8-0.9,2.7c-1,5.2-0.3,10.3,0.9,15.5V267.8z"/>
</g>
<g class="st0">
	<path class="st5" d="M220.7,331c-0.1,0.3-0.3,0.6-0.4,0.8c-2,3.7-4.5,7.1-5.9,11c-1.5,4.1-3.1,26,4.3,24.9c0.7-0.1,1.4-0.3,2-0.6
		V331z"/>
</g>
<g class="st0">
	<path class="st5" d="M220.2,226.5c-0.2-0.1-0.3-0.2-0.5-0.3c-3.4-1.7-7.3-2.6-11.1-2.4c-1.1,0-2.2,0.2-3.1,0.7
		c-1.6,0.9-2.3,2.9-2.6,4.7c-2.2,11.4,3.9,22.7,5.4,34.3c1.2,9.2-0.5,18.8-4.9,27c-2,3.7-4.5,7.1-5.9,11c-1.5,4.1-3.1,26,4.3,24.9
		c9.6-1.5,7.8-19,7.9-25.7c0.2-9.9,1.7-19.8,3.1-29.6c0.7-5,1.5-10.1,3.3-14.9c1.2-3.2,2.8-6.3,4.1-9.5V226.5z"/>
</g>
<g class="st0">
	<path class="st1" d="M210.2,391.2c0.2-0.4,0.3-0.9,0.4-1.3c1.1-3.7,1.7-7.5,1.6-11.3c0-1.2-0.1-2.4-0.7-3.4c-0.6-1-1.6-1.6-2.7-2.1
		c-3.4-1.7-7.3-2.6-11.1-2.4c-1.1,0-2.2,0.2-3.1,0.7c-1.6,0.9-2.3,2.9-2.6,4.7c-1,5.1-0.3,10.1,0.8,15.2H210.2z"/>
</g>
<g class="st0">
	<path class="st1" d="M177.7,391.2h5.3c0.6-5,1.3-9.9,2.1-14.9c0.7-5,1.5-10.1,3.3-14.9c1.4-3.7,3.4-7.3,4.7-11
		c0.2-0.6,0.4-1.3,0.6-1.9c1.1-3.7,1.7-7.5,1.6-11.3c0-1.2-0.1-2.4-0.7-3.4c-0.6-1-1.6-1.6-2.7-2.1c-3.4-1.7-7.3-2.6-11.1-2.4
		c-1.1,0-2.2,0.2-3.1,0.7c-1.6,0.9-2.3,2.9-2.6,4.7c-2.2,11.4,3.9,22.7,5.4,34.3C181.5,376.4,180.5,384.2,177.7,391.2z"/>
</g>
<g class="st0">
	<path class="st3" d="M202.1,391.2c0.6-2.8,0.9-5.7,0.9-8.6c0-1.2-0.1-2.4-0.7-3.4c-0.6-1-1.6-1.6-2.7-2.1
		c-3.4-1.7-7.3-2.6-11.1-2.4c-1.1,0-2.2,0.2-3.1,0.7c-1.6,0.9-2.3,2.9-2.6,4.7c-0.7,3.7-0.6,7.4,0,11.2H202.1z"/>
</g>
<g class="st0">
	<path class="st3" d="M169.8,391.2h4.4c0.5-3.6,1-7.2,1.5-10.8c0.7-5,1.5-10.1,3.3-14.9c1.4-3.7,3.4-7.3,4.7-11
		c0.2-0.6,0.4-1.3,0.6-1.9c1.1-3.7,1.7-7.5,1.6-11.3c0-1.2-0.1-2.4-0.7-3.4c-0.6-1-1.6-1.6-2.7-2.1c-3.4-1.7-7.3-2.6-11.1-2.4
		c-1.1,0-2.2,0.2-3.1,0.7c-1.6,0.9-2.3,2.9-2.6,4.7c-2.2,11.4,3.9,22.7,5.4,34.3C172,379.1,171.5,385.3,169.8,391.2z"/>
</g>
<g class="st0">
	<path class="st5" d="M177.4,391.2c0.4-1.9,1-3.8,1.6-5.6c1.4-3.7,3.4-7.3,4.7-11c0.2-0.6,0.4-1.3,0.6-1.9c1.1-3.7,1.7-7.5,1.6-11.3
		c0-1.2-0.1-2.4-0.7-3.4c-0.6-1-1.6-1.6-2.7-2.1c-3.4-1.7-7.3-2.6-11.1-2.4c-1.1,0-2.2,0.2-3.1,0.7c-1.6,0.9-2.3,2.9-2.6,4.7
		c-2.1,10.8,3.2,21.5,5.1,32.4H177.4z"/>
</g>
<g class="st0">
	<path class="st1" d="M56.7-0.2c-1.1,7.3-1.3,22.8,4.9,21.8c8.1-1.3,8.1-13.9,8-21.8H56.7z"/>
</g>
<g class="st0">
	<path class="st3" d="M60.3,0c0,0,0-0.1,0-0.1H48.5c-0.1,0.3-0.3,0.7-0.4,1c-1.5,4.1-3.1,26,4.3,24.9C62,24.2,60.2,6.7,60.3,0z"/>
</g>
<g class="st0">
	<path class="st5" d="M60.3,20.1c0.1-6.8,0.9-13.5,1.8-20.2h-4.2C57,3.4,55.7,6.8,53.9,10c-2,3.7-4.5,7.1-5.9,11
		c-1.5,4.1-3.1,26,4.3,24.9C62,44.3,60.2,26.8,60.3,20.1z"/>
</g>
<g class="st0">
	<path class="st1" d="M45.3,60.5c1.1-3.7,1.7-7.5,1.6-11.3c0-1.2-0.1-2.4-0.7-3.4c-0.6-1-1.6-1.6-2.7-2.1c-3.4-1.7-7.3-2.6-11.1-2.4
		c-1.1,0-2.2,0.2-3.1,0.7c-1.6,0.9-2.3,2.9-2.6,4.7c-2.2,11.4,3.9,22.7,5.4,34.3c1.2,9.2-0.5,18.8-4.9,27c-2,3.7-4.5,7.1-5.9,11
		c-1.5,4.1-3.1,26,4.3,24.9c9.6-1.5,7.8-19,7.9-25.7c0.2-9.9,1.7-19.8,3.1-29.6c0.7-5,1.5-10.1,3.3-14.9c1.4-3.7,3.4-7.3,4.7-11
		C44.9,61.8,45.1,61.2,45.3,60.5z"/>
</g>
<g class="st0">
	<path class="st1" d="M7.4-0.2c-1.2,10.8,4.3,21.4,5.7,32.3c1.2,9.2-0.5,18.8-4.9,27c-2,3.7-4.5,7.1-5.9,11
		c-1.5,4.1-3.1,26,4.3,24.9c9.6-1.5,7.8-19,7.9-25.7c0.2-9.9,1.7-19.8,3.1-29.6c0.7-5,1.5-10.1,3.3-14.9c1.4-3.7,3.4-7.3,4.7-11
		c0.2-0.6,0.4-1.3,0.6-1.9C27.5,8,28.1,4.2,28,0.4c0-0.2,0-0.4,0-0.5H7.4z"/>
</g>
<g class="st0">
	<path class="st3" d="M36,64.6c1.1-3.7,1.7-7.5,1.6-11.3c0-1.2-0.1-2.4-0.7-3.4c-0.6-1-1.6-1.6-2.7-2.1c-3.4-1.7-7.3-2.6-11.1-2.4
		c-1.1,0-2.2,0.2-3.1,0.7c-1.6,0.9-2.3,2.9-2.6,4.7c-2.2,11.4,3.9,22.7,5.4,34.3c1.2,9.2-0.5,18.8-4.9,27c-2,3.7-4.5,7.1-5.9,11
		c-1.5,4.1-3.1,26,4.3,24.9c9.6-1.5,7.8-19,7.9-25.7c0.2-9.9,1.7-19.8,3.1-29.6c0.7-5,1.5-10.1,3.3-14.9c1.4-3.7,3.4-7.3,4.7-11
		C35.6,65.9,35.8,65.2,36,64.6z"/>
</g>
<g class="st0">
	<path class="st3" d="M18,1c-0.3-0.5-0.7-0.9-1.1-1.2H5.6c-2,0-4-0.2-5.8-0.6v19.9c1.4,5.6,3.3,11.3,4.1,17
		C5,44.7,3.6,53.6-0.2,61.4v36.7c6.9-3.9,5.4-18.8,5.5-24.9C5.5,63.3,7,53.4,8.4,43.6c0.7-5,1.5-10.1,3.3-14.9
		c1.4-3.7,3.4-7.3,4.7-11c0.2-0.6,0.4-1.3,0.6-1.9c1.1-3.7,1.7-7.5,1.6-11.3C18.7,3.3,18.6,2,18,1z"/>
</g>
<g class="st0">
	<path class="st5" d="M36,84.7c1.1-3.7,1.7-7.5,1.6-11.3c0-1.2-0.1-2.4-0.7-3.4c-0.6-1-1.6-1.6-2.7-2.1c-3.4-1.7-7.3-2.6-11.1-2.4
		c-1.1,0-2.2,0.2-3.1,0.7c-1.6,0.9-2.3,2.9-2.6,4.7c-2.2,11.4,3.9,22.7,5.4,34.3c1.2,9.2-0.5,18.8-4.9,27c-2,3.7-4.5,7.1-5.9,11
		c-1.5,4.1-3.1,26,4.3,24.9c9.6-1.5,7.8-19,7.9-25.7c0.2-9.9,1.7-19.8,3.1-29.6c0.7-5,1.5-10.1,3.3-14.9c1.4-3.7,3.4-7.3,4.7-11
		C35.6,86,35.8,85.3,36,84.7z"/>
</g>
<g class="st0">
	<path class="st5" d="M18,21.1c-0.6-1-1.6-1.6-2.7-2.1c-3.4-1.7-7.3-2.6-11.1-2.4c-1.1,0-2.2,0.2-3.1,0.7c-0.5,0.3-1,0.7-1.3,1.2
		v20.7c1.4,5.6,3.3,11.3,4.1,17C5,64.8,3.6,73.8-0.2,81.5v36.7c6.9-3.9,5.4-18.8,5.5-24.9C5.5,83.4,7,73.5,8.4,63.7
		c0.7-5,1.5-10.1,3.3-14.9c1.4-3.7,3.4-7.3,4.7-11c0.2-0.6,0.4-1.3,0.6-1.9c1.1-3.7,1.7-7.5,1.6-11.3C18.7,23.4,18.6,22.1,18,21.1z"
		/>
</g>
<g class="st0">
	<g>
		<path class="st1" d="M68,280.3c1.1-3.7,1.7-7.5,1.6-11.3c0-1.2-0.1-2.4-0.7-3.4c-0.6-1-1.6-1.6-2.7-2.1c-3.4-1.7-7.3-2.6-11.1-2.4
			c-1.1,0-2.2,0.2-3.1,0.7c-1.6,0.9-2.3,2.9-2.6,4.7c-2.2,11.4,3.9,22.7,5.4,34.3c1.2,9.2-0.5,18.8-4.9,27c-2,3.7-4.5,7.1-5.9,11
			c-1.5,4.1-3.1,26,4.3,24.9c9.6-1.5,7.8-19,7.9-25.7c0.2-9.9,1.7-19.8,3.1-29.6c0.7-5,1.5-10.1,3.3-14.9c1.4-3.7,3.4-7.3,4.7-11
			C67.5,281.6,67.8,281,68,280.3z"/>
	</g>
	<g>
		<path class="st1" d="M49,231.5c1.1-3.7,1.7-7.5,1.6-11.3c0-1.2-0.1-2.4-0.7-3.4c-0.6-1-1.6-1.6-2.7-2.1c-3.4-1.7-7.3-2.6-11.1-2.4
			c-1.1,0-2.2,0.2-3.1,0.7c-1.6,0.9-2.3,2.9-2.6,4.7c-2.2,11.4,3.9,22.7,5.4,34.3c1.2,9.2-0.5,18.8-4.9,27c-2,3.7-4.5,7.1-5.9,11
			c-1.5,4.1-3.1,26,4.3,24.9c9.6-1.5,7.8-19,7.9-25.7c0.2-9.9,1.7-19.8,3.1-29.6c0.7-5,1.5-10.1,3.3-14.9c1.4-3.7,3.4-7.3,4.7-11
			C48.6,232.8,48.8,232.1,49,231.5z"/>
	</g>
	<g>
		<path class="st1" d="M32,190.1c1.1-3.7,1.7-7.5,1.6-11.3c0-1.2-0.1-2.4-0.7-3.4c-0.6-1-1.6-1.6-2.7-2.1c-3.4-1.7-7.3-2.6-11.1-2.4
			c-1.1,0-2.2,0.2-3.1,0.7c-1.6,0.9-2.3,2.9-2.6,4.7c-2.2,11.4,3.9,22.7,5.4,34.3c1.2,9.2-0.5,18.8-4.9,27c-2,3.7-4.5,7.1-5.9,11
			c-1.5,4.1-3.1,26,4.3,24.9c9.6-1.5,7.8-19,7.9-25.7c0.2-9.9,1.7-19.8,3.1-29.6c0.7-5,1.5-10.1,3.3-14.9c1.4-3.7,3.4-7.3,4.7-11
			C31.6,191.4,31.8,190.7,32,190.1z"/>
	</g>
	<g class="st2">
		<path class="st3" d="M58.7,284.4c1.1-3.7,1.7-7.5,1.6-11.3c0-1.2-0.1-2.4-0.7-3.4c-0.6-1-1.6-1.6-2.7-2.1
			c-3.4-1.7-7.3-2.6-11.1-2.4c-1.1,0-2.2,0.2-3.1,0.7c-1.6,0.9-2.3,2.9-2.6,4.7c-2.2,11.4,3.9,22.7,5.4,34.3
			c1.2,9.2-0.5,18.8-4.9,27c-2,3.7-4.5,7.1-5.9,11c-1.5,4.1-3.1,26,4.3,24.9c9.6-1.5,7.8-19,7.9-25.7c0.2-9.9,1.7-19.8,3.1-29.6
			c0.7-5,1.5-10.1,3.3-14.9c1.4-3.7,3.4-7.3,4.7-11C58.2,285.7,58.5,285,58.7,284.4z"/>
	</g>
	<g class="st2">
		<path class="st3" d="M39.7,235.6c1.1-3.7,1.7-7.5,1.6-11.3c0-1.2-0.1-2.4-0.7-3.4c-0.6-1-1.6-1.6-2.7-2.1
			c-3.4-1.7-7.3-2.6-11.1-2.4c-1.1,0-2.2,0.2-3.1,0.7c-1.6,0.9-2.3,2.9-2.6,4.7c-2.2,11.4,3.9,22.7,5.4,34.3
			c1.2,9.2-0.5,18.8-4.9,27c-2,3.7-4.5,7.1-5.9,11c-1.5,4.1-3.1,26,4.3,24.9c9.6-1.5,7.8-19,7.9-25.7c0.2-9.9,1.7-19.8,3.1-29.6
			c0.7-5,1.5-10.1,3.3-14.9c1.4-3.7,3.4-7.3,4.7-11C39.3,236.8,39.5,236.2,39.7,235.6z"/>
	</g>
	<g class="st2">
		<path class="st3" d="M23.6,179.4c-0.6-1-1.6-1.6-2.7-2.1c-3.4-1.7-7.3-2.6-11.1-2.4c-1.1,0-2.2,0.2-3.1,0.7
			c-1.6,0.9-2.3,2.9-2.6,4.7c-2.2,11.4,3.9,22.7,5.4,34.3c1.2,9.2-0.5,18.8-4.9,27c-1.5,2.8-3.4,5.5-4.8,8.4v26
			c0.8,1.1,1.9,1.6,3.2,1.4c9.6-1.5,7.8-19,7.9-25.7c0.2-9.9,1.7-19.8,3.1-29.6c0.7-5,1.5-10.1,3.3-14.9c1.4-3.7,3.4-7.3,4.7-11
			c0.2-0.6,0.4-1.3,0.6-1.9c1.1-3.7,1.7-7.5,1.6-11.3C24.3,181.6,24.2,180.4,23.6,179.4z"/>
	</g>
	<g class="st4">
		<path class="st5" d="M58.7,304.5c1.1-3.7,1.7-7.5,1.6-11.3c0-1.2-0.1-2.4-0.7-3.4c-0.6-1-1.6-1.6-2.7-2.1
			c-3.4-1.7-7.3-2.6-11.1-2.4c-1.1,0-2.2,0.2-3.1,0.7c-1.6,0.9-2.3,2.9-2.6,4.7c-2.2,11.4,3.9,22.7,5.4,34.3
			c1.2,9.2-0.5,18.8-4.9,27c-2,3.7-4.5,7.1-5.9,11c-1.5,4.1-3.1,26,4.3,24.9c9.6-1.5,7.8-19,7.9-25.7c0.2-9.9,1.7-19.8,3.1-29.6
			c0.7-5,1.5-10.1,3.3-14.9c1.4-3.7,3.4-7.3,4.7-11C58.2,305.8,58.5,305.1,58.7,304.5z"/>
	</g>
	<g class="st4">
		<path class="st5" d="M39.7,255.7c1.1-3.7,1.7-7.5,1.6-11.3c0-1.2-0.1-2.4-0.7-3.4c-0.6-1-1.6-1.6-2.7-2.1
			c-3.4-1.7-7.3-2.6-11.1-2.4c-1.1,0-2.2,0.2-3.1,0.7c-1.6,0.9-2.3,2.9-2.6,4.7c-2.2,11.4,3.9,22.7,5.4,34.3
			c1.2,9.2-0.5,18.8-4.9,27c-2,3.7-4.5,7.1-5.9,11c-1.5,4.1-3.1,26,4.3,24.9c9.6-1.5,7.8-19,7.9-25.7c0.2-9.9,1.7-19.8,3.1-29.6
			c0.7-5,1.5-10.1,3.3-14.9c1.4-3.7,3.4-7.3,4.7-11C39.3,256.9,39.5,256.3,39.7,255.7z"/>
	</g>
	<g class="st4">
		<path class="st5" d="M23.6,199.5c-0.6-1-1.6-1.6-2.7-2.1c-3.4-1.7-7.3-2.6-11.1-2.4c-1.1,0-2.2,0.2-3.1,0.7
			c-1.6,0.9-2.3,2.9-2.6,4.7c-2.2,11.4,3.9,22.7,5.4,34.3c1.2,9.2-0.5,18.8-4.9,27c-1.5,2.8-3.4,5.5-4.8,8.4v26
			c0.8,1.1,1.9,1.6,3.2,1.4c9.6-1.5,7.8-19,7.9-25.7c0.2-9.9,1.7-19.8,3.1-29.6c0.7-5,1.5-10.1,3.3-14.9c1.4-3.7,3.4-7.3,4.7-11
			c0.2-0.6,0.4-1.3,0.6-1.9c1.1-3.7,1.7-7.5,1.6-11.3C24.3,201.8,24.2,200.5,23.6,199.5z"/>
	</g>
</g>
<g class="st0">
	<path class="st1" d="M96.7,391.2h4c0.2-1,0.3-2.1,0.5-3.1c0.7-5,1.5-10.1,3.3-14.9c1.4-3.7,3.4-7.3,4.7-11c0.2-0.6,0.4-1.3,0.6-1.9
		c1.1-3.7,1.7-7.5,1.6-11.3c0-1.2-0.1-2.4-0.7-3.4c-0.6-1-1.6-1.6-2.7-2.1c-3.4-1.7-7.3-2.6-11.1-2.4c-1.1,0-2.2,0.2-3.1,0.7
		c-1.6,0.9-2.3,2.9-2.6,4.7c-2.2,11.4,3.9,22.7,5.4,34.3C97.1,384.2,97.1,387.7,96.7,391.2z"/>
</g>
<g class="st0">
	<path class="st1" d="M80.6,391.2c0.8-5.4,0.4-11.5,0.4-14.9c0.2-9.9,1.7-19.8,3.1-29.6c0.7-5,1.5-10.1,3.3-14.9
		c1.4-3.7,3.4-7.3,4.7-11c0.2-0.6,0.4-1.3,0.6-1.9c1.1-3.7,1.7-7.5,1.6-11.3c0-1.2-0.1-2.4-0.7-3.4c-0.6-1-1.6-1.6-2.7-2.1
		c-3.4-1.7-7.3-2.6-11.1-2.4c-1.1,0-2.2,0.2-3.1,0.7c-1.6,0.9-2.3,2.9-2.6,4.7c-2.2,11.4,3.9,22.7,5.4,34.3c1.2,9.2-0.5,18.8-4.9,27
		c-2,3.7-4.5,7.1-5.9,11c-0.7,2-1.5,8.3-1.2,14H80.6z"/>
</g>
<g class="st0">
	<path class="st3" d="M87.7,391.2H92c0.7-4.7,1.5-9.5,3.1-14c1.4-3.7,3.4-7.3,4.7-11c0.2-0.6,0.4-1.3,0.6-1.9
		c1.1-3.7,1.7-7.5,1.6-11.3c0-1.2-0.1-2.4-0.7-3.4c-0.6-1-1.6-1.6-2.7-2.1c-3.4-1.7-7.3-2.6-11.1-2.4c-1.1,0-2.2,0.2-3.1,0.7
		c-1.6,0.9-2.3,2.9-2.6,4.7c-2.2,11.4,3.9,22.7,5.4,34.3C87.6,386.9,87.7,389.1,87.7,391.2z"/>
</g>
<g class="st0">
	<path class="st3" d="M59.5,381.3c-0.5,1.6-1.1,5.6-1.2,10h13.4c0.2-4.2,0-8.3,0.1-10.8c0.2-9.9,1.7-19.8,3.1-29.6
		c0.7-5,1.5-10.1,3.3-14.9c1.4-3.7,3.4-7.3,4.7-11c0.2-0.6,0.4-1.3,0.6-1.9c1.1-3.7,1.7-7.5,1.6-11.3c0-1.2-0.1-2.4-0.7-3.4
		c-0.6-1-1.6-1.6-2.7-2.1c-3.4-1.7-7.3-2.6-11.1-2.4c-1.1,0-2.2,0.2-3.1,0.7c-1.6,0.9-2.3,2.9-2.6,4.7c-2.2,11.4,3.9,22.7,5.4,34.3
		c1.2,9.2-0.5,18.8-4.9,27C63.4,373.9,60.9,377.4,59.5,381.3z"/>
</g>
<g class="st0">
	<path class="st5" d="M97.8,391.2c0.7-1.6,1.5-3.2,2.1-4.9c0.2-0.6,0.4-1.3,0.6-1.9c1.1-3.7,1.7-7.5,1.6-11.3c0-1.2-0.1-2.4-0.7-3.4
		c-0.6-1-1.6-1.6-2.7-2.1c-3.4-1.7-7.3-2.6-11.1-2.4c-1.1,0-2.2,0.2-3.1,0.7c-1.6,0.9-2.3,2.9-2.6,4.7c-1.4,6.9,0.3,13.8,2.2,20.7
		H97.8z"/>
</g>
<g class="st0">
	<path class="st5" d="M65.4,390.4c-0.2,0.3-0.3,0.6-0.5,0.8h7.4c0.6-6.8,1.6-13.6,2.6-20.4c0.7-5,1.5-10.1,3.3-14.9
		c1.4-3.7,3.4-7.3,4.7-11c0.2-0.6,0.4-1.3,0.6-1.9c1.1-3.7,1.7-7.5,1.6-11.3c0-1.2-0.1-2.4-0.7-3.4c-0.6-1-1.6-1.6-2.7-2.1
		c-3.4-1.7-7.3-2.6-11.1-2.4c-1.1,0-2.2,0.2-3.1,0.7c-1.6,0.9-2.3,2.9-2.6,4.7c-2.2,11.4,3.9,22.7,5.4,34.3
		C71.6,372.6,69.8,382.2,65.4,390.4z"/>
</g>
<g class="st0">
	<path class="st1" d="M25.1,391.2c0.2-0.4,0.4-0.8,0.5-1.3c0.2-0.6,0.4-1.3,0.6-1.9c1.1-3.7,1.7-7.5,1.6-11.3c0-1.2-0.1-2.4-0.7-3.4
		c-0.6-1-1.6-1.6-2.7-2.1c-3.4-1.7-7.3-2.6-11.1-2.4c-1.1,0-2.2,0.2-3.1,0.7c-1.6,0.9-2.3,2.9-2.6,4.7c-1.1,5.7-0.2,11.4,1.3,17.1
		H25.1z"/>
</g>
<g class="st0">
	<path class="st1" d="M10.2,331.9c-0.6-1-1.6-1.6-2.7-2.1c-2.4-1.2-5-2-7.7-2.3v52.8c0.3-1.9,0.6-3.9,0.8-5.8
		c0.7-5,1.5-10.1,3.3-14.9c1.4-3.7,3.4-7.3,4.7-11c0.2-0.6,0.4-1.3,0.6-1.9c1.1-3.7,1.7-7.5,1.6-11.3
		C10.9,334.2,10.8,332.9,10.2,331.9z"/>
</g>
<g class="st0">
	<path class="st3" d="M17.8,377.4c-0.6-1-1.6-1.6-2.7-2.1c-3.4-1.7-7.3-2.6-11.1-2.4c-1.1,0-2.2,0.2-3.1,0.7
		c-0.5,0.3-0.8,0.6-1.2,1.1v16.6h17.4c0.9-3.4,1.4-6.9,1.4-10.5C18.5,379.6,18.5,378.4,17.8,377.4z"/>
</g>
<g class="st0">
	<path class="st3" d="M0.9,336c-0.3-0.5-0.7-0.8-1.1-1.2v16.4c0.1-0.2,0.1-0.4,0.2-0.5c1.1-3.7,1.7-7.5,1.6-11.3
		C1.6,338.2,1.5,337,0.9,336z"/>
</g>
<g class="st0">
	<path class="st5" d="M0.9,356.1c-0.3-0.5-0.7-0.8-1.1-1.2v16.4c0.1-0.2,0.1-0.4,0.2-0.5c1.1-3.7,1.7-7.5,1.6-11.3
		C1.6,358.3,1.5,357.1,0.9,356.1z"/>
</g>
</svg>
